<?xml version="1.0" standalone="no"?>
<!DOCTYPE svg PUBLIC "-//W3C//DTD SVG 20010904//EN"
 "http://www.w3.org/TR/2001/REC-SVG-20010904/DTD/svg10.dtd">
<svg version="1.0" xmlns="http://www.w3.org/2000/svg"
 width="86.000000pt" height="86.000000pt" viewBox="0 0 86.000000 86.000000"
 preserveAspectRatio="xMidYMid meet">
<metadata>
Created by potrace 1.11, written by Peter Selinger 2001-2013
</metadata>
<g transform="translate(0.000000,86.000000) scale(0.100000,-0.100000)"
fill="#000000" stroke="none">
<path d="M261 843 c-6 -7 -20 -13 -31 -13 -11 0 -41 -22 -67 -49 -64 -65 -73
-77 -73 -95 0 -8 -5 -18 -10 -21 -6 -4 -8 -11 -5 -16 4 -5 2 -9 -2 -9 -12 0
-10 -152 2 -170 5 -8 11 -24 12 -35 2 -11 8 -21 13 -23 6 -2 10 -9 10 -15 2
-37 119 -125 173 -129 15 -1 27 -5 27 -9 0 -3 15 -4 33 -2 17 3 42 6 55 6 12
1 22 4 22 7 0 3 10 6 22 7 11 1 24 6 27 10 8 12 31 10 31 -2 0 -5 -5 -26 -10
-45 -21 -74 -80 -112 -167 -109 -30 1 -61 8 -68 15 -7 7 -15 10 -19 7 -3 -4
-6 -1 -6 5 0 15 -68 -13 -94 -38 -19 -19 -19 -20 8 -45 35 -32 104 -68 116
-60 6 3 10 2 10 -3 0 -15 142 -7 182 10 20 9 46 26 57 37 12 12 21 18 21 14 0
-4 11 9 25 28 13 19 28 39 32 44 27 35 36 91 39 265 3 102 9 199 14 215 12 36
55 85 75 85 7 0 20 7 29 15 8 9 18 16 21 15 19 -1 23 2 30 23 3 12 9 38 11 58
l6 36 -44 -2 c-41 -2 -75 -12 -120 -36 -15 -8 -19 -8 -14 0 4 6 1 11 -6 11 -9
0 -9 3 2 10 10 7 11 10 3 11 -7 1 -19 2 -25 3 -7 1 -23 -1 -34 -5 -12 -4 -25
-5 -28 -1 -10 9 -46 13 -45 4 1 -4 1 -15 0 -25 -1 -16 -4 -16 -41 3 -23 11
-46 18 -52 14 -6 -4 -8 -3 -5 3 9 15 -128 11 -142 -4z m151 -129 c21 -9 38
-21 38 -25 0 -5 8 -18 18 -29 9 -11 18 -25 18 -30 1 -6 3 -11 4 -12 3 -4 8
-36 10 -63 7 -85 -79 -175 -160 -169 -120 9 -189 149 -127 259 43 76 123 103
199 69z"/>
</g>
</svg>
